<?xml version="1.0" encoding="UTF-8"?>
<svg width="112px" height="121px" viewBox="0 0 112 121" version="1.1" xmlns="http://www.w3.org/2000/svg" xmlns:xlink="http://www.w3.org/1999/xlink">
    <!-- Generator: Sketch 43.1 (39012) - http://www.bohemiancoding.com/sketch -->
    <title>Mark</title>
    <desc>Created with Sketch.</desc>
    <defs>
        <linearGradient x1="50%" y1="47.7584135%" x2="50%" y2="0%" id="linearGradient-1">
            <stop stop-color="#FFFFFF" stop-opacity="0.5" offset="0%"></stop>
            <stop stop-color="#000000" stop-opacity="0.3" offset="100%"></stop>
        </linearGradient>
        <rect id="path-2" x="53" y="3" width="15" height="65" rx="7.5"></rect>
        <rect id="path-3" x="3" y="3" width="15" height="65" rx="7.5"></rect>
    </defs>
    <g id="Web" stroke="none" stroke-width="1" fill="none" fill-rule="evenodd">
        <g id="1-Login" transform="translate(-644.000000, -269.000000)">
            <g id="Mark" transform="translate(646.500000, 240.000000)">
                <g id="Shape" transform="translate(18.000000, 81.500000)">
                    <g transform="translate(60.500000, 35.500000) rotate(-180.000000) translate(-60.500000, -35.500000) ">
                        <use fill="#FFFFFF" xlink:href="#path-2"></use>
                        <use fill="url(#linearGradient-1)" xlink:href="#path-2"></use>
                    </g>
                    <g>
                        <use fill="#FFFFFF" xlink:href="#path-3"></use>
                        <use fill="url(#linearGradient-1)" xlink:href="#path-3"></use>
                    </g>
                    <rect fill="#FFFFFF" transform="translate(35.587572, 35.662428) rotate(-225.000000) translate(-35.587572, -35.662428) " x="28.0875721" y="-7.08757211" width="15" height="85.5" rx="7.5"></rect>
                </g>
                <path d="M78.5,41.5 C50.8857625,41.5 28.5,63.8857625 28.5,91.5" id="Shape" stroke="#FFFFFF" stroke-width="5" opacity="0.4" stroke-linecap="round" transform="translate(53.500000, 66.500000) rotate(-315.000000) translate(-53.500000, -66.500000) "></path>
                <path d="M91,16 C49.5786438,16 16,49.5786438 16,91" id="Shape" stroke="#FFFFFF" stroke-width="5" opacity="0.2" stroke-linecap="round" transform="translate(53.500000, 53.500000) rotate(-315.000000) translate(-53.500000, -53.500000) "></path>
            </g>
        </g>
    </g>
</svg>